<?xml version="1.0" standalone="no"?>
<!DOCTYPE svg PUBLIC "-//W3C//DTD SVG 20010904//EN"
 "http://www.w3.org/TR/2001/REC-SVG-20010904/DTD/svg10.dtd">
<svg version="1.0" xmlns="http://www.w3.org/2000/svg"
 width="600.000000pt" height="600.000000pt" viewBox="0 0 600.000000 600.000000"
 preserveAspectRatio="xMidYMid meet">
<metadata>
Created by potrace 1.11, written by Peter Selinger 2001-2013
</metadata>
<g transform="translate(0.000000,600.000000) scale(0.100000,-0.100000)"
fill="#000000" stroke="none">
<path d="M3332 4414 c-74 -15 -326 -136 -447 -215 -70 -45 -180 -131 -210
-163 -5 -6 -44 -40 -85 -76 -41 -36 -120 -111 -175 -167 -55 -55 -125 -118
-155 -139 -30 -20 -70 -50 -89 -66 -43 -38 -69 -47 -146 -52 -35 -3 -69 -7
-74 -10 -5 -3 -42 -8 -82 -11 -150 -12 -176 -15 -274 -35 -55 -12 -127 -23
-160 -26 -33 -3 -76 -11 -95 -19 -69 -27 -326 -114 -370 -125 -43 -12 -120
-46 -130 -59 -17 -20 -71 -50 -84 -45 -8 3 -62 -17 -120 -44 -57 -28 -115 -53
-128 -57 -13 -4 -34 -15 -48 -25 -14 -9 -89 -50 -167 -90 -198 -102 -263 -163
-263 -245 0 -31 50 -123 76 -138 7 -4 19 -13 26 -20 34 -34 183 -103 293 -135
11 -3 28 -13 38 -22 21 -20 106 -50 162 -57 22 -3 64 -16 92 -30 82 -38 189
-64 333 -81 156 -19 191 -5 205 78 4 22 10 40 14 40 5 0 20 11 35 25 36 33 45
11 15 -41 -12 -22 -27 -48 -33 -59 -6 -11 -23 -38 -37 -60 -15 -22 -38 -63
-52 -90 -14 -28 -40 -66 -56 -85 -17 -19 -34 -39 -39 -45 -51 -63 -162 -281
-169 -333 l-5 -34 42 6 c54 7 181 45 198 58 6 6 12 8 12 5 0 -18 210 113 486
303 100 68 116 72 234 58 36 -5 88 -10 115 -13 28 -3 68 -7 90 -9 22 -3 74 -7
115 -11 117 -9 133 -18 194 -98 62 -81 209 -237 224 -237 10 0 20 31 29 85 11
75 22 143 28 171 5 22 2 35 -9 47 -9 8 -16 18 -16 20 0 11 55 17 196 22 82 3
196 8 254 10 58 3 177 7 265 10 88 3 176 8 195 11 68 13 131 9 143 -6 19 -24
273 -130 327 -137 47 -5 80 6 80 28 0 4 -23 39 -52 76 -28 37 -51 74 -52 82
-1 14 81 49 117 50 9 1 23 -10 29 -24 18 -40 95 -86 135 -81 19 2 36 5 38 8 3
3 6 37 8 77 l2 72 35 9 c19 5 76 20 126 34 l92 24 20 -20 c20 -20 125 -68 150
-68 7 0 26 7 42 15 28 14 32 39 10 55 -4 3 -19 29 -34 57 l-26 53 37 19 c21
10 40 19 43 19 3 0 25 5 50 12 25 7 81 14 125 16 70 3 92 -1 180 -32 113 -39
169 -74 271 -171 39 -38 88 -82 108 -99 63 -55 243 -134 247 -108 12 81 -5
129 -151 419 l-96 190 24 70 c24 72 74 246 86 300 9 42 64 220 86 280 11 28
22 64 26 80 4 17 28 77 54 135 26 58 53 123 58 145 6 22 20 75 32 117 28 103
25 124 -18 120 -19 -1 -46 -9 -61 -16 -31 -16 -111 -95 -150 -146 -14 -19 -31
-41 -38 -47 -6 -7 -21 -29 -34 -50 -13 -21 -26 -40 -30 -43 -7 -6 -97 -166
-140 -250 -94 -187 -125 -257 -164 -369 -24 -70 -46 -134 -50 -143 -6 -16 -25
-23 -49 -19 -5 1 -21 -2 -36 -7 -15 -6 -33 -6 -42 -1 -17 10 -95 17 -253 24
-60 3 -123 8 -140 11 -34 7 -228 102 -295 144 -25 16 -94 49 -155 74 -60 26
-123 53 -140 61 -16 9 -39 17 -50 19 -11 2 -58 22 -105 44 -47 22 -137 57
-200 78 -63 20 -126 45 -140 55 -14 9 -97 34 -185 54 -190 43 -206 46 -271 54
-7 1 -5 32 8 99 11 53 21 108 23 122 9 67 50 200 96 311 28 68 66 165 86 214
40 103 65 148 105 189 23 22 26 31 17 42 -15 18 -116 17 -207 -2z"/>
</g>
</svg>
